<svg id="Layer_1" data-name="Layer 1" xmlns="http://www.w3.org/2000/svg" viewBox="0 0 281.45 32.71"><defs><style>.cls-1{fill:#fef4e8;}.cls-2{fill:#fff;}</style></defs><path class="cls-1" d="M32.92,0a16.17,16.17,0,0,0-8.31,2.27,16.34,16.34,0,1,0-8.25,30.44,16.18,16.18,0,0,0,8.28-2.26,16.18,16.18,0,0,0,8.28,2.26A16.36,16.36,0,1,0,32.92,0ZM24.64,28.83A15,15,0,0,1,19,21.91l6.37,6.38Zm1.91-1.53-8.39-8.38a14.62,14.62,0,0,1-.22-2.57c0-.2,0-.4,0-.6l10,10A14.31,14.31,0,0,1,26.55,27.3Zm2.31-2.74L18.16,13.81a14.72,14.72,0,0,1,.61-2.37L29.94,22.61A16.9,16.9,0,0,1,28.86,24.56Zm1.68-3.49L19.39,9.91a15.61,15.61,0,0,1,1.06-1.86L31.11,18.71A15.91,15.91,0,0,1,30.54,21.07ZM21.36,6.82a13.91,13.91,0,0,1,1.45-1.53L31,13.51a15.63,15.63,0,0,1,.26,2.84c0,.13,0,.26,0,.39ZM24,4.32c.2-.16.42-.31.64-.46a14.71,14.71,0,0,1,5.5,6.59Zm-22.61,12a15,15,0,0,1,15-15,14.68,14.68,0,0,1,7,1.74,16.2,16.2,0,0,0-6.75,13.24A16.39,16.39,0,0,0,23.37,29.6a15,15,0,0,1-22-13.25Zm31.55,15a14.68,14.68,0,0,1-7-1.74,16.37,16.37,0,0,0,0-26.49,14.68,14.68,0,0,1,7-1.74,15,15,0,0,1,0,30Z"/><g id="SvgjsG2068"><path class="cls-2" d="M73.31,5.32a9.93,9.93,0,0,1,6.22,1.79,6.06,6.06,0,0,1,2.31,5.07H77.3a3.16,3.16,0,0,0-1.08-2.41A4.88,4.88,0,0,0,73.13,9a4,4,0,0,0-2.36.64,2.06,2.06,0,0,0-.89,1.78,1.57,1.57,0,0,0,.55,1.34,5.4,5.4,0,0,0,1.56.75c.68.22,1.86.53,3.55.95a18.34,18.34,0,0,1,4.09,1.43,5.63,5.63,0,0,1,2.18,2,5.5,5.5,0,0,1,.74,3,6.26,6.26,0,0,1-1.07,3.61,6.68,6.68,0,0,1-3.13,2.4,12.65,12.65,0,0,1-4.66.82,10.25,10.25,0,0,1-6.51-2,6.51,6.51,0,0,1-2.55-5.44v-.15h4.53A3.54,3.54,0,0,0,70.44,23a5.32,5.32,0,0,0,3.4,1,6,6,0,0,0,3-.67,2.16,2.16,0,0,0,1.15-2,2,2,0,0,0-.63-1.46,4.55,4.55,0,0,0-1.67-1A34.85,34.85,0,0,0,72.2,18,15.58,15.58,0,0,1,68,16.45a5.76,5.76,0,0,1-2-1.95,5.28,5.28,0,0,1-.69-2.76,5.51,5.51,0,0,1,1.15-3.49,6.77,6.77,0,0,1,3-2.21,10.41,10.41,0,0,1,3.82-.72Zm28,.51V9.77H90v4.56h10.32V18H90v5.22H101.5v3.94H85.33V5.83Zm19.18,0V9.77h-6.38V27.13h-4.69V9.77H103V5.83Zm18.23,0V9.77h-6.38V27.13H127.6V9.77h-6.38V5.83Zm7.13,0V23.19h10.38v3.94H141.12V5.83Zm28.94,0V9.77H163.49v4.56h10.32V18H163.49v5.22H175v3.94H158.81V5.83Zm10,0,5,14.65h.06l4.72-14.65h6.59v21.3h-4.39V12h-.05l-5.23,15.1H187.8l-5.22-14.95h-.06v15h-4.38V5.83Zm36.4,0V9.77H209.88v4.56H220.2V18H209.88v5.22h11.49v3.94H205.2V5.83Zm8.05,0,8.89,14.29h.06V5.83h4.39v21.3h-4.69L229,12.87h-.06V27.13h-4.38V5.83Zm33.24,0V9.77H256V27.13h-4.68V9.77H245V5.83Zm9.78-.51a9.91,9.91,0,0,1,6.22,1.79,6.06,6.06,0,0,1,2.31,5.07H276.2a3.13,3.13,0,0,0-1.09-2.41A4.88,4.88,0,0,0,272,9a4,4,0,0,0-2.35.64,2.07,2.07,0,0,0-.9,1.78,1.6,1.6,0,0,0,.55,1.34,5.35,5.35,0,0,0,1.57.75c.68.22,1.86.53,3.55.95a18.52,18.52,0,0,1,4.09,1.43,5.6,5.6,0,0,1,2.17,2,5.5,5.5,0,0,1,.75,3,6.33,6.33,0,0,1-1.07,3.61,6.66,6.66,0,0,1-3.14,2.4,12.59,12.59,0,0,1-4.65.82,10.26,10.26,0,0,1-6.52-2,6.51,6.51,0,0,1-2.55-5.44v-.15h4.54A3.51,3.51,0,0,0,269.34,23a5.3,5.3,0,0,0,3.4,1,6.07,6.07,0,0,0,3-.67,2.18,2.18,0,0,0,1.15-2,2,2,0,0,0-.63-1.46,4.72,4.72,0,0,0-1.67-1A35.63,35.63,0,0,0,271.1,18a15.82,15.82,0,0,1-4.18-1.52,5.94,5.94,0,0,1-2-1.95,5.38,5.38,0,0,1-.68-2.76,5.51,5.51,0,0,1,1.15-3.49,6.74,6.74,0,0,1,3-2.21,10.48,10.48,0,0,1,3.82-.72Z"/></g></svg>