<svg id="Layer_1" data-name="Layer 1" xmlns="http://www.w3.org/2000/svg" viewBox="0 0 49.3 32.72"><defs><style>.cls-1{fill:#182533;}</style></defs><path class="cls-1" d="M32.94,0a16.21,16.21,0,0,0-8.32,2.27,16.35,16.35,0,1,0-8.26,30.45,16.18,16.18,0,0,0,8.29-2.25,16.18,16.18,0,0,0,8.29,2.25A16.36,16.36,0,0,0,32.94,0ZM24.65,28.84A15,15,0,0,1,19,21.92L25.4,28.3C25.16,28.49,24.9,28.67,24.65,28.84Zm1.91-1.52-8.39-8.39A14.62,14.62,0,0,1,18,16.36c0-.2,0-.4,0-.61L28,25.8A16.91,16.91,0,0,1,26.56,27.32Zm2.32-2.75L18.17,13.82a14.57,14.57,0,0,1,.61-2.38L30,22.62A16.82,16.82,0,0,1,28.88,24.57Zm1.67-3.49L19.4,9.92a15,15,0,0,1,1.06-1.87L31.13,18.72A14.78,14.78,0,0,1,30.55,21.08ZM21.37,6.82a13.91,13.91,0,0,1,1.45-1.53L31,13.51a15.82,15.82,0,0,1,.26,2.85v.39ZM24,4.32l.64-.46a14.56,14.56,0,0,1,5.5,6.6Zm-22.62,12a15,15,0,0,1,15-15,14.72,14.72,0,0,1,7,1.74,16.38,16.38,0,0,0,0,26.5,15,15,0,0,1-22-13.25Zm31.57,15a14.72,14.72,0,0,1-7-1.74,16.39,16.39,0,0,0,0-26.51,14.72,14.72,0,0,1,7-1.74,15,15,0,0,1,0,30Z"/></svg>